<?xml version="1.0" encoding="UTF-8"?>
<svg xmlns="http://www.w3.org/2000/svg" viewBox="0 0 512 512">
  <!-- Halaman kertas dengan sudut terlipat -->
  <path d="M104 28 h236 l96 96 v332 a28 28 0 0 1 -28 28 H104 a28 28 0 0 1 -28 -28 V56 a28 28 0 0 1 28 -28 Z"
        fill="#fffdf4" stroke="#d6d2bd" stroke-width="8"/>
  <path d="M340 28 l96 96 h-68 a28 28 0 0 1 -28 -28 Z" fill="#e9e4cd" stroke="#d6d2bd" stroke-width="8" stroke-linejoin="round"/>
  <!-- Garis teks tersirat -->
  <rect x="128" y="416" width="184" height="18" rx="9" fill="#e3dfc9"/>
  <rect x="128" y="450" width="256" height="18" rx="9" fill="#e3dfc9"/>
  <!-- Lencana logo Reed -->
  <g transform="translate(128,120) scale(0.5)">

  <!-- Generator: Adobe Illustrator 30.0.0, SVG Export Plug-In . SVG Version: 2.1.1 Build 123)  -->
  <defs>
    <style>
      .st0 {
        fill: #fcffbb;
      }

      .st1 {
        fill: url(#linear-gradient);
      }
    </style>
    <linearGradient id="linear-gradient" x1="256" y1="17.45" x2="256" y2="498.26" gradientUnits="userSpaceOnUse">
      <stop offset="0" stop-color="#6e763d"/>
      <stop offset="1" stop-color="#333820"/>
    </linearGradient>
  </defs>
  <path class="st1" d="M462.47,387.46h0c-6.43.22-10.8,6.62-8.65,12.68h0c2.32,6.56-2.95,13.3-9.87,12.65h0c-6.41-.61-11.55,5.18-10.2,11.47h0c1.46,6.8-4.63,12.82-11.41,11.28h0c-6.27-1.42-12.12,3.66-11.59,10.07h0c.58,6.93-6.23,12.12-12.76,9.73h0c-6.04-2.21-12.49,2.08-12.78,8.51h0c-.31,6.95-7.73,11.22-13.9,8.02h0c-5.71-2.97-12.66.47-13.76,6.81h0c-1.2,6.85-9.1,10.14-14.81,6.18h0c-5.28-3.67-12.61-1.15-14.52,4.99h0c-2.07,6.64-10.32,8.9-15.48,4.23h0c-4.77-4.32-12.36-2.76-15.04,3.09h0c-2.9,6.32-11.37,7.5-15.89,2.22h0c-4.18-4.89-11.91-4.32-15.31,1.14h0c-3.68,5.9-12.24,5.99-16.04.17h0c-3.52-5.39-11.26-5.8-15.33-.82h0c-4.41,5.38-12.91,4.37-15.93-1.89h0c-2.8-5.79-10.42-7.19-15.1-2.78h0c-5.06,4.77-13.36,2.69-15.56-3.91h0c-2.04-6.1-9.42-8.47-14.62-4.69h0c-5.63,4.09-13.59.96-14.93-5.87h0c-1.24-6.31-8.26-9.6-13.9-6.52h0c-6.1,3.33-13.6-.79-14.06-7.73h0c-.42-6.42-6.96-10.58-12.96-8.24h0c-6.48,2.53-13.39-2.52-12.96-9.46h0c.4-6.42-5.55-11.38-11.79-9.83h0c-6.75,1.68-12.96-4.21-11.64-11.04h0c1.22-6.32-4.05-12-10.44-11.26h0c-6.91.8-12.31-5.84-10.13-12.44h0c2.02-6.11-2.48-12.42-8.92-12.5h0c-6.95-.09-11.47-7.36-8.46-13.63h0c2.78-5.8-.87-12.63-7.24-13.54h0c-6.88-.98-10.43-8.77-6.65-14.6h0c3.5-5.4.75-12.64-5.45-14.35h0c-6.7-1.85-9.22-10.03-4.72-15.33h0c4.16-4.91,2.36-12.44-3.57-14.93h0c-6.41-2.69-7.86-11.13-2.72-15.81h0c4.76-4.33,3.93-12.04-1.63-15.27h0c-6.01-3.49-6.38-12.04-.68-16.03h0c5.27-3.69,5.44-11.44.33-15.35h0c-5.52-4.23-4.78-12.76,1.37-15.99h0c5.7-2.99,6.86-10.65,2.29-15.18h0c-4.93-4.9-3.11-13.27,3.41-15.68h0c6.03-2.23,8.16-9.68,4.22-14.77h0c-4.26-5.49-1.39-13.56,5.38-15.11h0c6.27-1.44,9.33-8.56,6.07-14.1h0c-3.53-5.99.35-13.62,7.27-14.3h0c6.4-.63,10.35-7.3,7.82-13.21h0c-2.73-6.39,2.09-13.47,9.04-13.25h0c6.43.2,11.2-5.91,9.45-12.1h0c-1.89-6.69,3.8-13.09,10.66-11.99h0c6.35,1.02,11.86-4.43,10.92-10.8h0c-1.02-6.88,5.44-12.49,12.11-10.53h0c6.17,1.82,12.33-2.88,12.21-9.31h0c-.13-6.95,6.99-11.7,13.36-8.89h0c5.89,2.59,12.6-1.28,13.3-7.67h0c.76-6.91,8.43-10.71,14.38-7.11h0c5.51,3.33,12.66.34,14.17-5.91h0c1.64-6.76,9.73-9.54,15.17-5.21h0c5.04,4,12.51,1.96,14.81-4.05h0c2.49-6.49,10.87-8.22,15.72-3.23h0c4.48,4.61,12.16,3.54,15.21-2.12h0c3.3-6.12,11.83-6.76,16-1.19h0c3.86,5.15,11.61,5.07,15.35-.16h0c4.05-5.65,12.6-5.19,16.02.86h0c3.17,5.6,10.86,6.51,15.25,1.81h0c4.74-5.09,13.16-3.54,15.78,2.9h0c2.42,5.96,9.94,7.85,14.89,3.74h0c5.35-4.44,13.5-1.83,15.28,4.9h0c1.64,6.22,8.85,9.05,14.29,5.61h0c5.88-3.72,13.63-.08,14.53,6.81h0c.83,6.38,7.62,10.11,13.46,7.4h0c6.3-2.94,13.53,1.66,13.54,8.61h0c.01,6.43,6.27,11,12.4,9.06h0c6.63-2.11,13.2,3.38,12.32,10.27h0c-.81,6.38,4.81,11.72,11.14,10.57h0c6.84-1.24,12.66,5.04,10.91,11.77h0c-1.62,6.23,3.27,12.23,9.7,11.91h0c6.94-.36,11.91,6.61,9.32,13.06h0c-2.4,5.97,1.68,12.55,8.1,13.05h0c6.93.54,10.97,8.08,7.57,14.15h0c-3.15,5.61.06,12.66,6.36,13.98h0c6.81,1.42,9.85,9.42,5.7,15h0c-3.84,5.16-1.56,12.57,4.52,14.67h0c6.57,2.28,8.56,10.6,3.73,15.6h0c-4.47,4.63-3.15,12.27,2.61,15.13h0c6.23,3.1,7.14,11.61,1.71,15.95h0c-5.02,4.02-4.69,11.76.65,15.34h0c5.78,3.87,5.59,12.43-.35,16.04h0c-5.5,3.34-6.16,11.07-1.32,15.3h0c5.24,4.58,3.96,13.04-2.4,15.87h0c-5.88,2.61-7.52,10.19-3.26,15.01h0c4.61,5.21,2.26,13.44-4.41,15.43h0c-6.16,1.84-8.77,9.14-5.15,14.46h0c3.9,5.75.52,13.62-6.34,14.74h0c-6.35,1.04-9.86,7.94-6.96,13.69h0c3.14,6.21-1.23,13.57-8.17,13.81Z"/>
  <path class="st0" d="M479.28,282.51l-.23-1.02c-1.05-4.74-5.67-7.79-10.44-6.85-28.27,5.55-120.09,26.09-178.33,67.9,28.57-27.27,80.02-62.28,165.87-79.54,5.43-1.09,8.58-6.8,6.61-11.97l-.37-.97c-1.74-4.54-6.75-6.87-11.33-5.25-27.16,9.63-114.99,43.37-166.48,93.25,24.27-31.15,70.05-73.31,152.45-102.95,5.21-1.87,7.5-7.98,4.78-12.8l-.51-.91c-2.38-4.23-7.69-5.81-11.98-3.54-25.46,13.5-107.4,59.73-151.04,116.6,19.45-34.37,58.58-82.77,135.75-124.14,4.88-2.62,6.25-8.99,2.86-13.37l-.64-.83c-2.98-3.84-8.45-4.62-12.37-1.75-23.21,17.08-97.51,74.8-132.36,137.44,14.22-36.84,45.84-90.45,116.13-142.66,4.44-3.3,4.87-9.81.87-13.64l-.75-.72c-3.51-3.36-9.04-3.34-12.49.08-19.14,18.98-77.28,79.66-105.44,142.31.04-2.29.04-4.6.01-6.92,11.77-37.18,36.62-86.17,88.6-138.19,3.91-3.92,3.38-10.41-1.13-13.62l-.85-.6c-3.96-2.82-9.43-1.98-12.34,1.91-14.11,18.85-53.03,73.55-75.1,131.15-.39-5.34-.91-10.69-1.54-16.03,9.77-33.07,27.67-72.39,59.59-115.42,3.3-4.45,1.82-10.8-3.11-13.31l-.93-.47c-4.33-2.21-9.62-.58-11.93,3.69-9.13,16.87-31.05,59.69-46.11,107.52-.7-4.39-1.48-8.73-2.28-13.03l.21-17.76c6.9-22.81,16.95-47.75,31.28-74.53,2.61-4.88.22-10.95-5.03-12.71l-.99-.33c-4.61-1.55-9.6.83-11.26,5.4-3.1,8.52-8.19,23.2-13.53,41.53l.56-48.02c.04-3.24-1.69-6.24-4.52-7.83-2.61-1.47-5.79-1.52-8.44-.14l-.18.09c-3.07,1.6-4.93,4.84-4.76,8.31l2.32,46.77c-5.25-17.95-10.23-32.32-13.29-40.71-1.66-4.57-6.66-6.95-11.26-5.4l-.99.33c-5.25,1.76-7.64,7.83-5.03,12.71,15.49,28.94,25.98,55.74,32.9,80.02l.2,4.05c-1.42,6.96-2.74,14.06-3.89,21.26-15.06-47.84-36.99-90.65-46.11-107.52-2.31-4.27-7.6-5.9-11.93-3.69l-.93.47c-4.93,2.51-6.41,8.86-3.11,13.31,31.92,43.02,49.81,82.35,59.59,115.42-.63,5.34-1.15,10.69-1.54,16.03-22.07-57.6-60.98-112.3-75.1-131.15-2.91-3.89-8.38-4.72-12.34-1.91l-.85.6c-4.51,3.21-5.04,9.71-1.13,13.62,51.98,52.01,76.83,101.01,88.6,138.19-.02,2.31-.02,4.62.01,6.92-28.15-62.65-86.3-123.34-105.44-142.31-3.45-3.42-8.98-3.45-12.49-.08l-.75.72c-3.99,3.83-3.57,10.34.87,13.64,70.29,52.22,101.91,105.82,116.13,142.66-34.85-62.65-109.15-120.37-132.36-137.44-3.91-2.88-9.39-2.1-12.37,1.75l-.64.83c-3.39,4.38-2.02,10.75,2.86,13.37,77.17,41.37,116.29,89.78,135.75,124.14-43.64-56.88-125.59-103.1-151.04-116.6-4.29-2.28-9.6-.7-11.98,3.54l-.51.91c-2.71,4.82-.42,10.93,4.78,12.8,82.39,29.64,128.18,71.8,152.45,102.95-51.49-49.88-139.32-83.62-166.48-93.25-4.58-1.62-9.6.71-11.33,5.25l-.37.97c-1.98,5.17,1.18,10.88,6.61,11.97,85.84,17.27,137.3,52.28,165.87,79.54-58.23-41.81-150.05-62.34-178.33-67.9-4.77-.94-9.39,2.11-10.44,6.85l-.23,1.02c-1.2,5.4,2.76,10.59,8.28,10.87,145.27,7.52,203.83,77.35,210.7,86.2.74,1.02,1.85,2.55,2.2,3.01.54.7,2.69,1.16,3.15.79.32-.26,1.69-1.89,2.52-2.88l.03.02s.17-.23.42-.57c.1-.13.18-.22.18-.22h0c6.27-8.16,64.64-78.78,210.8-86.35,5.53-.29,9.49-5.47,8.28-10.87Z"/>

  </g>
</svg>
